<svg aria-hidden="true" style="position: absolute; width: 0; height: 0; overflow: hidden;" version="1.1" xmlns="http://www.w3.org/2000/svg" xmlns:xlink="http://www.w3.org/1999/xlink">
<defs>
<symbol id="contact" viewBox="0 0 32 32">
<path d="M22.736 17.998c-0.013 0.019-0.025 0.038-0.038 0.056-0.179 0.262-0.173 0.296-0.129 0.478l0.645 2.457c0.007 0.025 0.006 0.051-0 0.076s-0.020 0.047-0.039 0.066c-0.018 0.018-0.041 0.031-0.067 0.037s-0.051 0.006-0.076-0.002l-2.819-0.815c-0.142-0.041-0.319 0.004-0.433 0.047s-0.553 0.204-0.996 0.326c-0.443 0.122-1.251 0.302-1.851 0.302-3.772 0-6.706-3.012-6.706-6.631 0-0.451 0.049-0.901 0.146-1.341 0.643-2.972 3.388-5.211 6.678-5.211 3.772 0 6.823 2.933 6.811 6.549-0.001 1.262-0.378 2.494-1.083 3.541-0.015 0.021-0.030 0.043-0.045 0.065z"></path>
<path d="M16.92 21.878c0.284-0.005 0.567-0.030 0.847-0.075 0.033-0.005 0.066 0 0.096 0.015s0.053 0.039 0.068 0.069c0.015 0.030 0.020 0.063 0.014 0.096s-0.021 0.063-0.045 0.086c-1.149 1.081-2.669 1.68-4.247 1.675-0.82 0-1.639-0.179-2.38-0.47-0.074-0.032-0.154-0.050-0.234-0.051s-0.161 0.013-0.236 0.043l-2.476 0.883c-0.024 0.008-0.050 0.010-0.075 0.005s-0.048-0.016-0.067-0.033c-0.019-0.017-0.034-0.038-0.042-0.062s-0.010-0.050-0.006-0.075l0.513-2.631c0.016-0.071-0.035-0.177-0.125-0.314-0.718-1.075-1.054-2.359-0.956-3.648s0.625-2.507 1.497-3.461c0.022-0.024 0.051-0.041 0.082-0.048s0.065-0.004 0.095 0.008 0.055 0.034 0.073 0.061c0.017 0.027 0.026 0.059 0.025 0.092l-0 0.001c-0.004 0.11-0.008 0.219-0.008 0.332 0 1.674 0.518 3.274 1.467 4.533 0.519 0.721 1.176 1.331 1.933 1.796 1.183 0.765 2.642 1.172 4.187 1.172z"></path>
<path fill="none" stroke="#fff" stroke-linejoin="miter" stroke-linecap="butt" stroke-miterlimit="4" stroke-width="1.2549" d="M15.707 0.941h0c8.316 0 15.057 6.741 15.057 15.057v0.003c0 8.316-6.741 15.057-15.057 15.057h-0c-8.316 0-15.057-6.741-15.057-15.057v-0.003c0-8.316 6.741-15.057 15.057-15.057z"></path>
</symbol>
<symbol id="facebook" viewBox="0 0 32 32">
<path opacity="0.9" d="M28.8 0h-25.6c-1.767 0-3.2 1.433-3.2 3.2v25.6c0 1.767 1.433 3.2 3.2 3.2h12.8v-12.047h-4.8v-4.518h4.8v-2.426c0-4.593 2.384-6.609 6.28-6.609 1.829 0 2.814 0.13 3.292 0.194l0.028 0.004v4.32h-2.658c-1.654 0-2.142 0.855-2.142 2.587v1.931h4.758l-0.658 4.518h-4.101v12.047h8c1.767 0 3.2-1.433 3.2-3.2v-25.6c0-1.767-1.433-3.2-3.2-3.2z"></path>
</symbol>
<symbol id="instagram" viewBox="0 0 32 32">
<path opacity="0.9" d="M9.6 0h12.8c5.302 0 9.6 4.298 9.6 9.6v12.8c0 5.302-4.298 9.6-9.6 9.6h-12.8c-5.302 0-9.6-4.298-9.6-9.6v-12.8c0-5.302 4.298-9.6 9.6-9.6zM25.6 4.8c0.8 0 1.6 0.8 1.6 1.6s-0.8 1.6-1.6 1.6c-0.8 0-1.6-0.8-1.6-1.6s0.8-1.6 1.6-1.6zM24 16c0-4.412-3.588-8-8-8s-8 3.588-8 8c0 4.412 3.588 8 8 8s8-3.588 8-8zM16 11.2c-2.651 0-4.8 2.149-4.8 4.8s2.149 4.8 4.8 4.8c2.651 0 4.8-2.149 4.8-4.8s-2.149-4.8-4.8-4.8z"></path>
</symbol>
<symbol id="linkedin" viewBox="0 0 32 32">
<path opacity="0.9" d="M28.8 0h-25.6c-1.767 0-3.2 1.433-3.2 3.2v25.6c0 1.767 1.433 3.2 3.2 3.2h25.6c1.767 0 3.2-1.433 3.2-3.2v-25.6c0-1.767-1.433-3.2-3.2-3.2zM6.4 7.302c0-1.382 1.122-2.502 2.506-2.502 1.381 0 2.505 1.122 2.505 2.502 0 1.382-1.123 2.504-2.505 2.504-1.386 0-2.506-1.122-2.506-2.504zM6.801 25.6v-13.818h4.298v13.818h-4.298zM27.2 25.6h-4.296v-6.72c0-1.603-0.029-3.664-2.234-3.664-2.237 0-2.581 1.745-2.581 3.548v6.836h-4.296v-13.818h4.124v1.888h0.058c0.574-1.086 1.976-2.232 4.067-2.232 4.352 0 5.157 2.862 5.157 6.583v7.579z"></path>
</symbol>
<symbol id="right" viewBox="0 0 32 32">
<path fill="#a06056" style="fill: var(--color3, #a06056)" d="M14.030 8.827c-0.595-0.595-1.56-0.595-2.155 0s-0.595 1.56 0 2.155l5.018 5.018-5.018 5.018c-0.595 0.595-0.595 1.56 0 2.155s1.56 0.595 2.155 0l6.095-6.095c0.595-0.595 0.595-1.56 0-2.155l-6.095-6.095z"></path>
</symbol>
<symbol id="scroll-down" viewBox="0 0 31 32">
<path d="M10.85 14.248c-0.245-0.245-0.245-0.642 0-0.887s0.642-0.245 0.887 0l3.949 3.948 3.948-3.948c0.245-0.245 0.642-0.245 0.887 0s0.245 0.642 0 0.887l-4.392 4.392c-0.245 0.245-0.642 0.245-0.887 0l-4.392-4.392z"></path>
<path fill="none" stroke-linejoin="miter" stroke-linecap="butt" stroke-miterlimit="4" stroke-width="1.2549" d="M15.686 0.941c8.317 0 15.059 6.742 15.059 15.059s-6.742 15.059-15.059 15.059c-8.317 0-15.059-6.742-15.059-15.059s6.742-15.059 15.059-15.059z"></path>
</symbol>
<symbol id="twitter" viewBox="0 0 32 32">
<path opacity="0.9" d="M28.8 0h-25.6c-1.767 0-3.2 1.433-3.2 3.2v25.6c0 1.767 1.433 3.2 3.2 3.2h25.6c1.767 0 3.2-1.433 3.2-3.2v-25.6c0-1.767-1.433-3.2-3.2-3.2zM24.56 9.983c0.93-0.107 1.815-0.346 2.64-0.7-0.616 0.89-1.396 1.673-2.294 2.3 0.009 0.191 0.013 0.382 0.013 0.575 0 5.872-4.621 12.642-13.074 12.642-2.596 0-5.011-0.735-7.045-1.996 0.36 0.042 0.726 0.063 1.097 0.063 2.154 0 4.135-0.711 5.707-1.903-2.011-0.036-3.708-1.321-4.293-3.086 0.28 0.051 0.569 0.079 0.864 0.079 0.42 0 0.826-0.054 1.211-0.156-2.103-0.407-3.686-2.203-3.686-4.357v-0.056c0.619 0.332 1.328 0.532 2.081 0.556-1.233-0.796-2.043-2.157-2.043-3.698 0-0.815 0.227-1.578 0.621-2.235 2.267 2.689 5.653 4.458 9.472 4.643-0.078-0.324-0.119-0.664-0.119-1.012 0-2.453 2.057-4.443 4.595-4.443 1.322 0 2.516 0.54 3.354 1.404 1.048-0.2 2.031-0.57 2.919-1.079-0.343 1.038-1.071 1.908-2.020 2.458z"></path>
</symbol>
<symbol id="menu" viewBox="0 0 59 32">
<path fill="#fff" style="fill: var(--color1, #fff)" opacity="0.66" d="M0.893 3.692v-2.462h58.184v4.923h-58.184v-2.462z"></path>
<path fill="#fff" style="fill: var(--color1, #fff)" opacity="0.66" d="M0.893 28.308c0-1.36-2.008-2.462 0-2.462h58.184v4.923h-58.184c-2.008 0 0-1.102 0-2.462z"></path>
</symbol>
<symbol id="left-right" viewBox="0 0 32 32">
<path d="M18 23l3 3 10-10-10-10-3 3 7 7z"></path>
<path d="M14 9l-3-3-10 10 10 10 3-3-7-7z"></path>
</symbol>
<symbol id="chevron" viewBox="0 0 30 32">
<path d="M13.268 8.827c-0.595-0.595-1.56-0.595-2.155 0s-0.595 1.56 0 2.155l5.018 5.018-5.018 5.018c-0.595 0.595-0.595 1.56 0 2.155s1.56 0.595 2.155 0l6.095-6.095c0.595-0.595 0.595-1.56 0-2.155l-6.095-6.095z"></path>
</symbol>
</defs>
</svg>
